<svg width="277" height="366" viewBox="0 0 277 366" fill="none" xmlns="http://www.w3.org/2000/svg">
<path d="M288.321 269.039C286.145 264.12 282.509 259.987 277.905 257.198C273.301 254.41 267.951 253.099 262.578 253.444L231.536 24.4495L279.864 3.19295C280.192 2.95641 280.428 2.61474 280.534 2.22504C280.64 1.83533 280.608 1.42116 280.445 1.05175C280.282 0.682337 279.997 0.380043 279.637 0.195342C279.278 0.0106414 278.866 -0.0452639 278.47 0.0369566L228.934 21.7576C228.602 21.9356 228.329 22.2056 228.148 22.535C227.967 22.8644 227.885 23.2391 227.912 23.6141L238.042 97.8727C-16.1445 209.91 0.212678 202.299 0.212678 204.062C0.212678 205.826 -4.06243 200.721 73.1693 276.557C74.2846 277.671 61.8309 281.199 254.12 219.193L258.953 254.373C255.266 255.123 251.785 256.656 248.744 258.87C245.704 261.083 243.177 263.925 241.334 267.201C239.491 270.477 238.376 274.111 238.064 277.855C237.753 281.6 238.252 285.368 239.529 288.903L151.609 327.703C148.46 321.682 143.09 317.12 136.635 314.98C130.18 312.84 123.145 313.291 117.016 316.236C110.887 319.181 106.145 324.391 103.791 330.764C101.437 337.137 101.656 344.175 104.401 350.39C107.146 356.605 112.203 361.51 118.503 364.07C124.803 366.63 131.853 366.644 138.162 364.108C144.472 361.573 149.548 356.686 152.317 350.482C155.087 344.278 155.333 337.241 153.003 330.859L241.016 292.152C244.085 298.417 249.52 303.208 256.125 305.471C262.731 307.734 269.966 307.284 276.239 304.219C282.513 301.154 287.31 295.725 289.576 289.128C291.841 282.53 291.39 275.304 288.321 269.039ZM74.5633 272.937L4.76671 204.619L238.042 101.957L253.377 215.387L74.5633 272.937ZM148.914 347.196C147.557 350.661 145.366 353.739 142.535 356.157C139.704 358.576 136.32 360.26 132.683 361.062C129.045 361.864 125.266 361.759 121.679 360.755C118.091 359.752 114.807 357.881 112.116 355.308C109.424 352.736 107.409 349.541 106.248 346.005C105.087 342.47 104.815 338.704 105.458 335.039C106.101 331.374 107.637 327.924 109.932 324.993C112.227 322.062 115.21 319.741 118.616 318.235C122.771 316.394 127.383 315.837 131.858 316.636C136.332 317.435 140.465 319.553 143.724 322.718C146.983 325.883 149.219 329.95 150.144 334.395C151.069 338.84 150.64 343.46 148.914 347.66V347.196ZM272.708 299.856C268.607 301.683 264.055 302.252 259.63 301.493C255.204 300.733 251.104 298.678 247.849 295.589C244.594 292.499 242.331 288.514 241.346 284.138C240.361 279.763 240.7 275.193 242.318 271.01C243.936 266.826 246.761 263.217 250.435 260.639C254.11 258.06 258.467 256.63 262.957 256.528C267.446 256.426 271.864 257.658 275.652 260.067C279.44 262.476 282.426 265.954 284.232 270.06C285.523 272.773 286.258 275.716 286.395 278.716C286.531 281.716 286.067 284.714 285.028 287.533C283.989 290.351 282.397 292.934 280.345 295.13C278.293 297.326 275.823 299.091 273.08 300.32L272.708 299.856Z" fill="#6CACE4"/>
</svg>
