<svg width="513" height="421" viewBox="0 0 513 421" fill="none" xmlns="http://www.w3.org/2000/svg">
<path d="M273.361 42.2817L210.078 27.4861C209.573 27.3725 209.095 27.1569 208.672 26.8519C208.249 26.547 207.89 26.1588 207.615 25.71C207.34 25.2612 207.155 24.7608 207.071 24.238C206.987 23.7152 207.005 23.1805 207.125 22.6651L207.651 20.2978C207.762 19.7803 207.972 19.2906 208.27 18.8573C208.567 18.424 208.946 18.0557 209.384 17.7741C209.822 17.4924 210.31 17.303 210.821 17.2168C211.331 17.1306 211.853 17.1495 212.356 17.2722L275.632 32.0677L273.361 42.2817Z" fill="white"/>
<path d="M300.326 134.021L280.532 130.271C268.202 127.933 257.282 120.673 250.176 110.087C243.069 99.5007 240.358 86.4558 242.638 73.8214L249.283 36.889C249.903 33.4535 251.829 30.4109 254.638 28.4306C257.447 26.4503 260.909 25.6944 264.262 26.3293L344.159 41.4707C346.541 41.9156 348.814 42.8377 350.848 44.1839C352.881 45.5302 354.636 47.2743 356.011 49.3163C357.386 51.3583 358.355 53.6582 358.861 56.0843C359.367 58.5103 359.402 61.0149 358.962 63.4545L352.894 96.9889C350.714 109.041 343.951 119.713 334.094 126.657C324.236 133.602 312.09 136.251 300.326 134.021Z" fill="black"/>
<path d="M261.186 32.6265C256.837 32.3605 254.293 33.584 252.911 34.515C244.364 40.247 249.127 55.1823 238.809 70.563C237.788 72.082 236.674 73.5324 235.473 74.9052L233.11 77.5186C232.515 78.1789 232.175 79.0398 232.156 79.9388C232.137 80.8379 232.44 81.7131 233.007 82.3994L236.213 86.2563L234.59 106.604C234.441 108.373 233.5 121.553 242.878 129.971L243.527 130.543C247.242 133.568 251.821 135.263 256.565 135.371L271.602 135.843V158.346H321.412L321.905 111.439C321.905 111.439 333.256 109.444 335.32 97.9996C335.841 95.1373 335.723 92.1912 334.974 89.3823C334.226 86.5734 332.866 83.9747 330.997 81.781C327.279 77.4654 320.724 73.8014 309.931 78.9616C306.321 80.4331 302.385 80.8566 298.555 80.1856C294.726 79.5145 291.15 77.775 288.223 75.1579C280.857 68.4018 281.395 58.7398 281.48 57.5628C281.48 57.5628 273.121 55.0227 269.103 52.1633C265.677 49.7228 261.945 44.5893 261.186 32.6265Z" fill="white"/>
<path d="M322.716 159.675H270.323V137.133L256.539 136.694C251.514 136.569 246.665 134.769 242.728 131.567C242.495 131.368 242.255 131.168 242.021 130.955C232.448 122.357 233.078 109.051 233.299 106.471L234.876 86.6817L232.02 83.2504C231.243 82.3177 230.828 81.125 230.853 79.899C230.878 78.673 231.342 77.4992 232.156 76.6007L234.519 73.9807C235.688 72.6562 236.772 71.2545 237.764 69.7848C242.774 62.3305 244.104 55.0624 245.279 48.6521C246.454 42.2418 247.492 36.5563 252.23 33.3578C254.637 31.7419 257.688 31.037 261.315 31.2631L262.458 31.3363L262.535 32.5C263.12 41.7364 265.599 47.9671 269.902 51.026C273.705 53.7324 281.83 56.2261 281.908 56.246L282.914 56.5519L282.836 57.6225C282.713 59.2982 282.446 67.9827 289.144 74.127C291.883 76.5904 295.235 78.2281 298.828 78.8584C302.42 79.4887 306.113 79.087 309.496 77.6979C321.126 72.1787 328.174 76.368 332.042 80.8565C334.036 83.2052 335.487 85.9841 336.288 88.9865C337.089 91.9889 337.219 95.1378 336.67 98.1989C334.852 108.28 326.286 111.585 323.261 112.449L322.716 159.675ZM272.919 157.015H320.146L320.672 110.288L321.736 110.102C322.165 110.029 332.224 108.107 334.067 97.7268C334.549 95.0632 334.438 92.3225 333.742 89.709C333.047 87.0955 331.784 84.6764 330.05 82.632C325.267 77.0861 318.693 76.2483 310.502 80.145L310.424 80.1783C306.591 81.7562 302.406 82.2125 298.334 81.4963C294.263 80.7801 290.466 78.9195 287.366 76.1219C280.72 70.0175 280.11 61.752 280.156 58.5002C277.793 57.7289 271.719 55.6143 268.376 53.227C263.593 49.8291 260.77 43.3257 259.985 33.8964C257.75 33.8143 255.541 34.4062 253.631 35.5987C249.822 38.1522 248.933 42.9998 247.79 49.1375C246.629 55.4746 245.194 63.3678 239.866 71.2876C238.816 72.8545 237.667 74.3494 236.427 75.7628L234.045 78.4227C233.665 78.8457 233.45 79.3963 233.439 79.9708C233.428 80.5452 233.623 81.1039 233.986 81.5414L237.536 85.8172L235.875 106.711C235.667 109.078 235.09 121.22 243.721 128.967C243.929 129.153 244.143 129.339 244.37 129.512C247.869 132.344 252.172 133.933 256.63 134.041L272.926 134.559L272.919 157.015Z" fill="black"/>
<path d="M318.517 102.907C317.491 102.907 316.487 102.595 315.633 102.01C314.779 101.426 314.114 100.595 313.721 99.6228C313.328 98.6507 313.225 97.5811 313.425 96.5492C313.626 95.5172 314.12 94.5693 314.846 93.8254C315.572 93.0814 316.497 92.5747 317.505 92.3695C318.512 92.1642 319.556 92.2696 320.504 92.6722C321.453 93.0748 322.264 93.7567 322.834 94.6315C323.405 95.5063 323.709 96.5348 323.709 97.587C323.709 98.9979 323.162 100.351 322.189 101.349C321.215 102.346 319.894 102.907 318.517 102.907ZM318.517 94.8872C318.004 94.8872 317.502 95.0432 317.075 95.3355C316.648 95.6278 316.316 96.0432 316.119 96.5292C315.923 97.0152 315.871 97.5501 315.971 98.066C316.072 98.582 316.319 99.0559 316.682 99.4279C317.045 99.7999 317.508 100.053 318.011 100.156C318.515 100.259 319.037 100.206 319.511 100.005C319.985 99.8032 320.391 99.4623 320.676 99.0249C320.961 98.5874 321.113 98.0732 321.113 97.5471C321.113 96.8417 320.84 96.1651 320.353 95.6663C319.866 95.1675 319.206 94.8872 318.517 94.8872Z" fill="black"/>
<path d="M314.604 98.8971C314.267 98.8974 313.944 98.7636 313.702 98.5242C313.46 98.2848 313.318 97.9583 313.306 97.6138C313.215 94.8674 314.013 92.6464 315.688 91.0106C319.011 87.7589 324.559 88.1712 324.774 88.1978C324.944 88.2113 325.11 88.2591 325.263 88.3385C325.415 88.4178 325.551 88.5271 325.662 88.6602C325.773 88.7933 325.858 88.9475 325.911 89.114C325.964 89.2805 325.984 89.4561 325.971 89.6308C325.958 89.8054 325.911 89.9757 325.834 90.1319C325.756 90.2881 325.65 90.4271 325.52 90.541C325.39 90.6549 325.239 90.7415 325.077 90.7959C324.914 90.8502 324.743 90.8712 324.572 90.8577C324.527 90.8577 319.926 90.5252 317.434 92.9523C316.858 93.5518 316.419 94.2736 316.146 95.0665C315.874 95.8595 315.775 96.7041 315.856 97.5406C315.867 97.8922 315.741 98.2338 315.506 98.4906C315.272 98.7473 314.947 98.8983 314.604 98.9105V98.8971Z" fill="black"/>
<path d="M263.905 78.9218C265.6 78.9218 266.974 77.5136 266.974 75.7765C266.974 74.0394 265.6 72.6311 263.905 72.6311C262.209 72.6311 260.835 74.0394 260.835 75.7765C260.835 77.5136 262.209 78.9218 263.905 78.9218Z" fill="black"/>
<path d="M271.543 134.579H295.361C295.575 134.578 295.783 134.652 295.949 134.789C296.115 134.927 296.229 135.12 296.272 135.334C296.315 135.548 296.284 135.771 296.184 135.965C296.084 136.158 295.922 136.31 295.725 136.395L271.543 146.961V134.579Z" fill="black"/>
<path d="M249.472 104.849C246.793 104.809 244.167 104.082 241.833 102.734C241.685 102.647 241.555 102.531 241.451 102.392C241.347 102.253 241.271 102.095 241.227 101.926C241.183 101.757 241.171 101.581 241.193 101.408C241.215 101.234 241.271 101.067 241.356 100.916C241.441 100.764 241.555 100.631 241.69 100.525C241.825 100.418 241.98 100.34 242.145 100.295C242.309 100.249 242.481 100.238 242.651 100.26C242.82 100.283 242.983 100.34 243.131 100.427C243.494 100.64 251.769 105.374 256.364 98.432C256.46 98.2875 256.582 98.1637 256.725 98.0678C256.868 97.9719 257.027 97.9057 257.195 97.8729C257.362 97.8402 257.534 97.8416 257.701 97.8771C257.868 97.9125 258.027 97.9813 258.168 98.0796C258.309 98.1778 258.43 98.3036 258.523 98.4496C258.617 98.5957 258.682 98.7592 258.714 98.9309C258.746 99.1025 258.744 99.279 258.71 99.4501C258.675 99.6212 258.608 99.7837 258.512 99.9282C257.543 101.474 256.203 102.738 254.62 103.6C253.037 104.462 251.264 104.892 249.472 104.849Z" fill="black"/>
<path d="M358.885 62.324L248.952 36.6229C251.664 24.4444 258.987 13.8684 269.309 7.22162C279.631 0.574805 292.107 -1.59841 303.993 1.18006L324.294 5.92794C336.179 8.70819 346.499 16.2112 352.986 26.7871C359.473 37.3629 361.595 50.1455 358.885 62.324Z" fill="white"/>
<path d="M323.017 145.073L268.044 148.982C259.394 149.597 252.869 157.28 253.469 166.143C254.07 175.005 261.568 181.691 270.218 181.076L325.191 177.167C333.841 176.552 340.366 168.869 339.766 160.006C339.165 151.144 331.667 144.458 323.017 145.073Z" fill="black"/>
<path d="M358.151 163.047H225.569V336.065H358.151V163.047Z" fill="black"/>
<path d="M23.8309 221.209H233.915C241.913 221.209 248.458 227.862 248.458 236.147V347.882C248.458 356.166 241.913 362.82 233.915 362.82H23.8309C15.8332 362.82 9.2879 356.166 9.2879 347.882V236.147C9.2879 227.862 15.8332 221.209 23.8309 221.209Z" fill="white" stroke="black" stroke-width="3"/>
<path d="M301.06 420.197H247.758L339.077 163.047H371.183C408.363 163.047 434.135 200.997 421.291 236.732L373.889 368.19C368.391 383.446 358.463 396.609 345.442 405.907C332.421 415.206 316.931 420.193 301.06 420.197Z" fill="black"/>
<path d="M205.269 365.636C204.925 365.636 204.594 365.496 204.351 365.247C204.108 364.997 203.971 364.659 203.971 364.306V287.01C203.971 286.658 204.108 286.319 204.351 286.07C204.594 285.82 204.925 285.68 205.269 285.68C205.613 285.68 205.943 285.82 206.187 286.07C206.43 286.319 206.567 286.658 206.567 287.01V364.306C206.567 364.659 206.43 364.997 206.187 365.247C205.943 365.496 205.613 365.636 205.269 365.636Z" fill="black"/>
<path d="M327.013 363.428C338.928 356.998 350.032 357.936 354.802 358.408C361.929 359.118 368.846 361.277 375.148 364.758C376.056 361.693 376.605 358.528 376.784 355.329C376.998 351.466 377.374 334.848 364.94 323.298C356.386 315.318 346.378 314.074 342.562 313.802H202.971C194.425 313.811 186.232 317.295 180.192 323.489C174.151 329.683 170.757 338.081 170.755 346.837V387.155C170.755 395.918 174.153 404.322 180.201 410.519C186.248 416.716 194.451 420.197 203.004 420.197H302.039C303.29 420.197 304.536 420.164 305.778 420.097C304.852 418.888 304.049 417.584 303.383 416.207C296.757 402.436 306.316 385.618 308.276 382.201C312.658 374.249 319.156 367.738 327.013 363.428Z" fill="black"/>
<path d="M375.148 364.759C372.942 363.555 349.02 351.034 327.013 363.429C307.621 374.347 295.764 401.186 303.35 416.207C304.045 417.568 304.846 418.869 305.745 420.097C321.411 419.122 336.423 413.316 348.81 403.439C361.196 393.563 370.377 380.079 375.148 364.759Z" fill="white"/>
<path d="M62.8481 241.872H28.1272C24.0124 241.872 20.6768 245.29 20.6768 249.506V267.367C20.6768 271.583 24.0124 275.001 28.1272 275.001H62.8481C66.9628 275.001 70.2985 271.583 70.2985 267.367V249.506C70.2985 245.29 66.9628 241.872 62.8481 241.872Z" fill="#B9D9EB"/>
<path d="M64.7495 288.852H24.7329C24.3886 288.852 24.0585 288.712 23.815 288.463C23.5716 288.214 23.4349 287.875 23.4349 287.523C23.4349 287.17 23.5716 286.832 23.815 286.582C24.0585 286.333 24.3886 286.193 24.7329 286.193H64.7301C65.0743 286.193 65.4045 286.333 65.6479 286.582C65.8913 286.832 66.028 287.17 66.028 287.523C66.028 287.875 65.8913 288.214 65.6479 288.463C65.4045 288.712 65.0743 288.852 64.7301 288.852H64.7495Z" fill="black"/>
<path d="M54.1775 301.373H24.7329C24.3886 301.373 24.0585 301.233 23.815 300.984C23.5716 300.734 23.4349 300.396 23.4349 300.043C23.4349 299.691 23.5716 299.352 23.815 299.103C24.0585 298.854 24.3886 298.713 24.7329 298.713H54.158C54.5023 298.713 54.8324 298.854 55.0758 299.103C55.3193 299.352 55.456 299.691 55.456 300.043C55.456 300.396 55.3193 300.734 55.0758 300.984C54.8324 301.233 54.5023 301.373 54.158 301.373H54.1775Z" fill="black"/>
<path d="M205.016 288.34C202.821 288.342 200.659 287.799 198.715 286.756C196.771 285.714 195.102 284.204 193.853 282.356L152.967 226.438C152.864 226.299 152.79 226.14 152.748 225.97C152.705 225.801 152.696 225.625 152.72 225.452C152.744 225.279 152.801 225.113 152.888 224.963C152.975 224.812 153.09 224.681 153.226 224.576C153.363 224.472 153.518 224.395 153.683 224.352C153.848 224.309 154.02 224.299 154.189 224.324C154.357 224.348 154.52 224.407 154.666 224.496C154.813 224.585 154.941 224.703 155.043 224.842L195.969 280.799C197.01 282.348 198.412 283.606 200.049 284.457C201.685 285.309 203.504 285.727 205.338 285.674C207.173 285.621 208.966 285.099 210.553 284.155C212.14 283.21 213.472 281.874 214.426 280.267L245.136 224.982C245.221 224.83 245.335 224.698 245.47 224.591C245.605 224.484 245.76 224.406 245.925 224.361C246.09 224.316 246.262 224.304 246.431 224.327C246.6 224.349 246.763 224.406 246.911 224.493C247.059 224.581 247.189 224.697 247.293 224.836C247.397 224.974 247.473 225.132 247.517 225.301C247.561 225.47 247.573 225.646 247.551 225.82C247.529 225.993 247.473 226.16 247.388 226.312L216.665 281.631C215.492 283.623 213.85 285.281 211.89 286.454C209.93 287.628 207.713 288.279 205.444 288.347L205.016 288.34Z" fill="black"/>
<path d="M150.488 365.636C150.143 365.636 149.813 365.496 149.57 365.247C149.326 364.997 149.19 364.659 149.19 364.306V240.535C148.638 222.362 160.132 218.591 160.618 218.432C160.781 218.381 160.953 218.363 161.123 218.38C161.293 218.397 161.458 218.448 161.608 218.53C161.759 218.612 161.892 218.724 162.001 218.859C162.109 218.993 162.191 219.149 162.241 219.316C162.291 219.483 162.308 219.659 162.291 219.833C162.275 220.007 162.225 220.176 162.145 220.331C162.065 220.485 161.956 220.622 161.824 220.733C161.693 220.844 161.541 220.928 161.378 220.979C160.969 221.112 151.299 224.403 151.785 240.496V364.306C151.785 364.659 151.649 364.997 151.405 365.247C151.162 365.496 150.832 365.636 150.488 365.636Z" fill="black"/>
<path d="M58.5258 153.016H223.687C226.488 153.016 228.82 155.353 228.82 158.312V212.64C228.82 215.6 226.488 217.936 223.687 217.936H58.5258C55.7253 217.936 53.3931 215.6 53.3931 212.64V158.312C53.3931 155.353 55.7253 153.016 58.5258 153.016Z" fill="white" stroke="black" stroke-width="3"/>
<path d="M227.41 182.1H54.4637V189.932H227.41V182.1Z" fill="#B9D9EB"/>
<path d="M110.477 96.9661H213.245C216.956 96.9661 220.026 100.059 220.026 103.951V143.297C220.026 147.19 216.956 150.282 213.245 150.282H110.477C106.766 150.282 103.696 147.19 103.696 143.297V103.951C103.696 100.059 106.766 96.9661 110.477 96.9661Z" fill="white" stroke="black" stroke-width="3"/>
<path d="M218.333 119.126H105.583V123.628H218.333V119.126Z" fill="#B9D9EB"/>
<path d="M162.436 98.8821H159.569V148.813H162.436V98.8821Z" fill="#B9D9EB"/>
<path d="M155.894 46.0096H205.613C209.155 46.0096 212.089 48.9624 212.089 52.6821V87.3004C212.089 91.0201 209.155 93.9728 205.613 93.9728H155.894C152.351 93.9728 149.418 91.0201 149.418 87.3004V52.6821C149.418 48.9624 152.351 46.0096 155.894 46.0096Z" fill="white" stroke="black" stroke-width="3"/>
<path d="M180.276 72.6112C177.202 72.6105 174.245 71.4014 172.014 69.2332L149.579 47.6748C149.328 47.4332 149.18 47.0992 149.169 46.7463C149.158 46.3934 149.285 46.0505 149.52 45.793C149.756 45.5355 150.082 45.3845 150.427 45.3733C150.771 45.3621 151.106 45.4915 151.357 45.7331L173.793 67.2981C175.519 68.9746 177.801 69.92 180.179 69.9446C182.558 69.9693 184.857 69.0714 186.617 67.4311L210.175 45.7132C210.433 45.4778 210.772 45.357 211.117 45.3776C211.462 45.3982 211.785 45.5584 212.015 45.8229C212.245 46.0874 212.363 46.4347 212.342 46.7882C212.322 47.1418 212.166 47.4727 211.908 47.7081L188.35 69.426C186.136 71.4755 183.259 72.6105 180.276 72.6112Z" fill="black"/>
<path d="M156.861 342.741C156.945 344.51 127.877 342.928 125.651 342.808C120.939 342.562 116.234 342.289 111.529 341.963C106.506 341.618 101.443 340.407 96.4203 340.554C94.0774 340.627 91.7865 341.298 90.5794 343.566C87.8536 348.813 97.8675 352.49 101.125 353.64C107.401 355.848 112.1 355.914 112.093 356.659C112.093 357.138 110.146 357.637 106.772 357.949C97.9714 358.774 81.2534 356.859 65.7231 350.827C62.1407 349.438 58.5842 347.356 54.7487 346.784C53.7666 346.6 52.7544 346.688 51.8166 347.039C50.8788 347.389 50.0493 347.99 49.414 348.779C48.2198 350.422 47.9472 353.341 49.2582 354.997C50.0192 355.81 50.8941 356.503 51.8542 357.052C50.9906 357.439 50.181 357.942 49.4464 358.548C47.5968 360.343 48.1484 363.648 49.4464 365.596C51.1727 368.21 54.0542 369.905 56.5853 371.541C59.5563 373.458 62.6262 375.21 65.7815 376.788C66.2518 376.997 66.6998 377.256 67.1184 377.559C67.8704 378.182 68.5267 378.917 69.0654 379.74C69.6989 380.557 70.3909 381.323 71.1356 382.034C76.7818 387.62 84.414 391.005 91.8708 393.146C99.3277 395.287 107.155 396.371 114.942 397.335C126.086 398.725 137.728 398.2 148.365 394.283C149.722 393.784 159.268 390.293 159.191 388.751C158.412 373.412 157.635 358.076 156.861 342.741Z" fill="white"/>
<path d="M125.858 399.37C122.148 399.362 118.442 399.122 114.761 398.652C106.428 397.614 98.9317 396.577 91.5397 394.456C82.4539 391.843 75.2825 387.992 70.2529 383.018C69.4611 382.26 68.7256 381.442 68.0528 380.571L67.8192 380.252C67.4303 379.655 66.9555 379.121 66.4109 378.669C66.0736 378.42 65.7101 378.21 65.327 378.044C62.0237 376.562 56.0076 372.725 55.9491 372.725L55.3002 372.326C52.8729 370.783 50.1082 369.001 48.3754 366.394C46.6426 363.787 46.2857 359.851 48.5636 357.636C48.8174 357.394 49.0885 357.172 49.3749 356.972C48.9639 356.647 48.5876 356.28 48.2521 355.874C46.5128 353.673 46.9152 350.036 48.3819 348.021C49.1512 347.034 50.1658 346.277 51.3192 345.83C52.4726 345.383 53.7222 345.262 54.9367 345.481C57.7923 345.906 60.4466 347.097 63.0166 348.241C64.1069 348.733 65.1453 349.191 66.1902 349.57C81.6297 355.555 97.9907 357.424 106.661 356.612H106.817C104.75 356.166 102.71 355.593 100.71 354.897C94.0448 352.556 90.2677 350.016 89.1579 347.13C88.8978 346.454 88.7884 345.727 88.8378 345.002C88.8872 344.277 89.0941 343.573 89.4435 342.941C90.6701 340.573 92.9999 339.323 96.3552 339.224C99.537 339.215 102.714 339.469 105.856 339.982C107.758 340.241 109.75 340.507 111.639 340.647C116.026 340.952 120.634 341.232 125.735 341.498H125.943C145.003 342.508 154.816 342.382 156.088 341.804C155.922 341.909 155.787 342.058 155.697 342.237C155.608 342.415 155.568 342.615 155.582 342.814L158.178 342.681L160.495 388.684C160.547 389.688 160.625 391.204 148.813 395.54C141.435 398.165 133.668 399.46 125.858 399.37ZM53.8205 348.041C53.1815 348.014 52.5451 348.141 51.9625 348.411C51.3798 348.681 50.867 349.087 50.4652 349.597C49.615 350.761 49.3489 353.022 50.2705 354.192C50.9287 354.874 51.6809 355.455 52.503 355.914L54.755 357.204L52.4251 358.321C51.6933 358.649 51.0043 359.069 50.3743 359.572C49.0763 360.868 49.6215 363.502 50.5496 364.891C51.9838 367.052 54.3786 368.582 56.6955 370.051L57.3445 370.457C60.2579 372.334 63.2646 374.054 66.3524 375.611C66.9067 375.855 67.4334 376.16 67.923 376.522C68.6781 377.126 69.3352 377.848 69.87 378.663L70.0971 378.969C70.6931 379.733 71.3439 380.451 72.0441 381.117C76.7622 385.771 83.5507 389.415 92.2276 391.909C99.4444 393.984 106.836 395.001 115.066 396.025C127.318 397.555 138.364 396.55 147.898 393.046C154.524 390.612 157.198 389.056 157.847 388.491L155.64 344.603C152.72 345.035 145.367 345.222 125.787 344.184H125.573C120.465 343.918 115.838 343.639 111.438 343.333C109.445 343.2 107.433 342.927 105.493 342.668C102.503 342.185 99.48 341.94 96.4526 341.937C94.0253 342.01 92.5586 342.741 91.7539 344.244C91.5749 344.54 91.4674 344.875 91.4403 345.222C91.4132 345.569 91.4673 345.918 91.5981 346.239C92.1433 347.669 94.3239 349.91 101.573 352.463C104.202 353.357 106.892 354.053 109.621 354.544C112.08 355.03 113.437 355.296 113.417 356.759C113.417 358.049 112.353 358.84 106.927 359.352C97.9647 360.19 81.117 358.295 65.2946 352.15C64.1913 351.725 63.075 351.226 62.0042 350.747C59.59 349.67 57.0979 348.553 54.5928 348.181C54.3481 348.113 54.0985 348.067 53.8464 348.041H53.8205Z" fill="black"/>
<path d="M95.7646 372.898C89.0086 372.898 80.5523 370.969 70.4995 367.126C63.912 364.586 57.4891 361.619 51.2699 358.242C51.1203 358.158 50.9884 358.044 50.8817 357.907C50.775 357.771 50.6956 357.614 50.648 357.446C50.6003 357.278 50.5855 357.102 50.6042 356.929C50.623 356.755 50.675 356.586 50.7572 356.433C50.8394 356.28 50.9503 356.145 51.0836 356.035C51.2168 355.926 51.3697 355.845 51.5336 355.796C51.6976 355.747 51.8693 355.732 52.0389 355.751C52.2086 355.77 52.3729 355.823 52.5225 355.908C52.8534 356.094 85.9843 374.527 102.735 369.287C103.064 369.184 103.42 369.219 103.725 369.385C104.029 369.551 104.257 369.834 104.357 370.171C104.458 370.509 104.424 370.874 104.262 371.186C104.1 371.497 103.824 371.731 103.494 371.834C100.983 372.576 98.3782 372.935 95.7646 372.898Z" fill="black"/>
<path d="M94.4863 385.652C81.8764 385.652 67.3845 379.142 66.6447 378.802C66.4792 378.739 66.3283 378.641 66.2011 378.515C66.0738 378.389 65.973 378.238 65.9047 378.071C65.8365 377.904 65.8022 377.725 65.8041 377.544C65.806 377.363 65.8439 377.184 65.9156 377.018C65.9873 376.853 66.0913 376.704 66.2211 376.581C66.3509 376.458 66.5038 376.364 66.6705 376.303C66.8372 376.243 67.0142 376.219 67.1905 376.231C67.3668 376.243 67.5389 376.292 67.696 376.375C67.9102 376.468 88.9958 385.938 101.528 382.054C101.691 382.003 101.862 381.986 102.032 382.003C102.202 382.021 102.367 382.072 102.517 382.154C102.667 382.237 102.8 382.349 102.908 382.484C103.017 382.619 103.098 382.775 103.147 382.942C103.196 383.109 103.213 383.285 103.196 383.459C103.18 383.632 103.13 383.801 103.049 383.955C102.969 384.109 102.859 384.246 102.728 384.356C102.596 384.467 102.444 384.55 102.281 384.601C99.7463 385.338 97.1205 385.692 94.4863 385.652Z" fill="black"/>
<path d="M100.016 150.532C99.7177 150.532 99.429 150.426 99.198 150.233L79.7283 134.127C79.4767 133.901 79.3203 133.584 79.2917 133.242C79.2631 132.9 79.3645 132.56 79.5749 132.293C79.7852 132.026 80.0881 131.852 80.4202 131.809C80.7524 131.765 81.0882 131.855 81.3573 132.059L100.827 148.165C101.037 148.337 101.189 148.572 101.263 148.837C101.337 149.101 101.328 149.383 101.239 149.643C101.15 149.903 100.985 150.128 100.766 150.287C100.546 150.446 100.284 150.532 100.016 150.532Z" fill="black"/>
<path d="M180.756 96.7959C180.412 96.7959 180.082 96.6558 179.839 96.4064C179.595 96.157 179.458 95.8187 179.458 95.466V71.2411C179.458 70.8884 179.595 70.5501 179.839 70.3007C180.082 70.0513 180.412 69.9112 180.756 69.9112C181.101 69.9112 181.431 70.0513 181.674 70.3007C181.918 70.5501 182.054 70.8884 182.054 71.2411V95.466C182.054 95.8187 181.918 96.157 181.674 96.4064C181.431 96.6558 181.101 96.7959 180.756 96.7959Z" fill="black"/>
<path d="M175.967 343.606C175.967 337.832 171.399 333.152 165.765 333.152C160.13 333.152 155.563 337.832 155.563 343.606V388.764C155.563 394.537 160.13 399.217 165.765 399.217C171.399 399.217 175.967 394.537 175.967 388.764V343.606Z" fill="black"/>
<path d="M175.947 387.108C175.603 387.108 175.273 386.968 175.03 386.719C174.786 386.469 174.649 386.131 174.649 385.778V343.606C174.649 343.253 174.786 342.915 175.03 342.666C175.273 342.416 175.603 342.276 175.947 342.276C176.292 342.276 176.622 342.416 176.865 342.666C177.109 342.915 177.245 343.253 177.245 343.606V385.778C177.245 386.131 177.109 386.469 176.865 386.719C176.622 386.968 176.292 387.108 175.947 387.108Z" fill="white"/>
<path d="M262.808 172.43C262.464 172.438 262.131 172.305 261.882 172.061C261.633 171.817 261.489 171.482 261.481 171.13C261.473 170.777 261.602 170.435 261.84 170.18C262.078 169.925 262.405 169.778 262.75 169.77L329.673 166.97C329.844 166.963 330.014 166.991 330.174 167.051C330.334 167.111 330.481 167.204 330.606 167.322C330.732 167.441 330.833 167.583 330.905 167.742C330.976 167.901 331.017 168.072 331.023 168.247C331.03 168.422 331.003 168.596 330.944 168.76C330.885 168.924 330.796 169.075 330.68 169.203C330.564 169.331 330.425 169.435 330.27 169.508C330.115 169.582 329.948 169.623 329.777 169.63L262.86 172.436L262.808 172.43Z" fill="white"/>
<path d="M286.451 315.132H249.932C249.588 315.132 249.258 314.992 249.014 314.742C248.771 314.493 248.634 314.155 248.634 313.802C248.634 313.449 248.771 313.111 249.014 312.862C249.258 312.612 249.588 312.472 249.932 312.472H284.608L309.84 241.413C309.958 241.082 310.2 240.812 310.512 240.663C310.824 240.514 311.181 240.498 311.505 240.619C311.829 240.74 312.092 240.987 312.238 241.307C312.383 241.627 312.398 241.993 312.281 242.324L286.451 315.132Z" fill="white"/>
<path d="M268.976 21.1839C267.087 20.8258 265.272 22.1032 264.923 24.0371C264.574 25.9709 265.822 27.8288 267.711 28.1869L287.048 31.8517C288.937 32.2098 290.751 30.9324 291.1 28.9986C291.45 27.0647 290.201 25.2068 288.312 24.8488L268.976 21.1839Z" fill="black"/>
<path d="M89.3723 129.04H19.6125C9.49764 129.04 1.29797 137.442 1.29797 147.806C1.29797 158.17 9.49764 166.571 19.6125 166.571H89.3723C99.4871 166.571 107.687 158.17 107.687 147.806C107.687 137.442 99.4871 129.04 89.3723 129.04Z" fill="white"/>
<path d="M89.3658 167.901H19.6125C14.4109 167.901 9.42241 165.784 5.74436 162.015C2.06631 158.247 0 153.135 0 147.806C0 142.476 2.06631 137.365 5.74436 133.596C9.42241 129.827 14.4109 127.71 19.6125 127.71H89.3658C94.5674 127.71 99.5559 129.827 103.234 133.596C106.912 137.365 108.978 142.476 108.978 147.806C108.978 153.135 106.912 158.247 103.234 162.015C99.5559 165.784 94.5674 167.901 89.3658 167.901ZM19.6125 130.37C15.0994 130.37 10.7712 132.207 7.57998 135.477C4.38876 138.747 2.59596 143.181 2.59596 147.806C2.59596 152.43 4.38876 156.865 7.57998 160.134C10.7712 163.404 15.0994 165.241 19.6125 165.241H89.3658C93.8789 165.241 98.2071 163.404 101.398 160.134C104.59 156.865 106.382 152.43 106.382 147.806C106.382 143.181 104.59 138.747 101.398 135.477C98.2071 132.207 93.8789 130.37 89.3658 130.37H19.6125Z" fill="black"/>
<path d="M25.5052 153.917C28.7992 153.917 31.4694 151.181 31.4694 147.806C31.4694 144.43 28.7992 141.694 25.5052 141.694C22.2113 141.694 19.541 144.43 19.541 147.806C19.541 151.181 22.2113 153.917 25.5052 153.917Z" fill="#6DC8C2"/>
<path d="M54.4891 153.917C57.7831 153.917 60.4533 151.181 60.4533 147.806C60.4533 144.43 57.7831 141.694 54.4891 141.694C51.1952 141.694 48.5249 144.43 48.5249 147.806C48.5249 151.181 51.1952 153.917 54.4891 153.917Z" fill="#6DC8C2"/>
<path d="M83.4727 153.917C86.7667 153.917 89.437 151.181 89.437 147.806C89.437 144.43 86.7667 141.694 83.4727 141.694C80.1788 141.694 77.5085 144.43 77.5085 147.806C77.5085 151.181 80.1788 153.917 83.4727 153.917Z" fill="#6DC8C2"/>
<path d="M489.883 208.737H363.298C351.247 208.737 341.479 218.746 341.479 231.093V373.084C341.479 385.431 351.247 395.44 363.298 395.44H489.883C501.933 395.44 511.702 385.431 511.702 373.084V231.093C511.702 218.746 501.933 208.737 489.883 208.737Z" fill="white"/>
<path d="M489.883 396.77H363.298C357.169 396.763 351.293 394.265 346.959 389.825C342.625 385.384 340.188 379.364 340.181 373.084V231.093C340.188 224.813 342.625 218.793 346.959 214.352C351.293 209.912 357.169 207.414 363.298 207.407H489.883C496.012 207.414 501.888 209.912 506.222 214.352C510.555 218.793 512.993 224.813 513 231.093V373.084C512.993 379.364 510.555 385.384 506.222 389.825C501.888 394.265 496.012 396.763 489.883 396.77ZM363.298 210.067C357.857 210.074 352.642 212.291 348.795 216.233C344.948 220.175 342.783 225.519 342.777 231.093V373.084C342.782 378.659 344.945 384.004 348.793 387.946C352.64 391.888 357.857 394.105 363.298 394.11H489.883C495.323 394.103 500.539 391.886 504.386 387.944C508.233 384.002 510.397 378.658 510.404 373.084V231.093C510.397 225.519 508.233 220.175 504.386 216.233C500.539 212.291 495.323 210.074 489.883 210.067H363.298Z" fill="black"/>
<path d="M384.046 278.951H367.114C362.2 278.951 358.216 283.032 358.216 288.067V305.416C358.216 310.452 362.2 314.533 367.114 314.533H384.046C388.96 314.533 392.944 310.452 392.944 305.416V288.067C392.944 283.032 388.96 278.951 384.046 278.951Z" fill="#B9D9EB"/>
<path d="M384.046 332.973H367.114C362.2 332.973 358.216 337.055 358.216 342.09V359.439C358.216 364.474 362.2 368.555 367.114 368.555H384.046C388.96 368.555 392.944 364.474 392.944 359.439V342.09C392.944 337.055 388.96 332.973 384.046 332.973Z" fill="#B9D9EB"/>
<path d="M492.726 288.088H414.341C413.997 288.088 413.666 287.947 413.423 287.698C413.18 287.449 413.043 287.11 413.043 286.758C413.043 286.405 413.18 286.067 413.423 285.817C413.666 285.568 413.997 285.428 414.341 285.428H492.726C493.07 285.428 493.4 285.568 493.644 285.817C493.887 286.067 494.024 286.405 494.024 286.758C494.024 287.11 493.887 287.449 493.644 287.698C493.4 287.947 493.07 288.088 492.726 288.088Z" fill="black"/>
<path d="M462.658 307.678H414.341C413.997 307.678 413.666 307.537 413.423 307.288C413.18 307.039 413.043 306.7 413.043 306.348C413.043 305.995 413.18 305.657 413.423 305.407C413.666 305.158 413.997 305.018 414.341 305.018H462.658C463.002 305.018 463.332 305.158 463.576 305.407C463.819 305.657 463.956 305.995 463.956 306.348C463.956 306.7 463.819 307.039 463.576 307.288C463.332 307.537 463.002 307.678 462.658 307.678Z" fill="black"/>
<path d="M492.726 342.296H414.341C413.997 342.296 413.666 342.155 413.423 341.906C413.18 341.657 413.043 341.318 413.043 340.966C413.043 340.613 413.18 340.275 413.423 340.025C413.666 339.776 413.997 339.636 414.341 339.636H492.726C493.07 339.636 493.4 339.776 493.644 340.025C493.887 340.275 494.024 340.613 494.024 340.966C494.024 341.318 493.887 341.657 493.644 341.906C493.4 342.155 493.07 342.296 492.726 342.296Z" fill="black"/>
<path d="M462.658 361.885H414.341C413.997 361.885 413.666 361.745 413.423 361.496C413.18 361.247 413.043 360.908 413.043 360.556C413.043 360.203 413.18 359.865 413.423 359.615C413.666 359.366 413.997 359.226 414.341 359.226H462.658C463.002 359.226 463.332 359.366 463.576 359.615C463.819 359.865 463.956 360.203 463.956 360.556C463.956 360.908 463.819 361.247 463.576 361.496C463.332 361.745 463.002 361.885 462.658 361.885Z" fill="black"/>
<path d="M375.142 228.327H376.018C378.782 228.327 381.433 229.452 383.388 231.455C385.342 233.458 386.441 236.174 386.441 239.006V250.597H364.719V239.006C364.719 236.174 365.817 233.458 367.772 231.455C369.726 229.452 372.377 228.327 375.142 228.327Z" fill="#FFBB45"/>
<path d="M387.946 248.436H363.213C361.263 248.436 359.683 250.055 359.683 252.053V252.352C359.683 254.35 361.263 255.97 363.213 255.97H387.946C389.896 255.97 391.477 254.35 391.477 252.352V252.053C391.477 250.055 389.896 248.436 387.946 248.436Z" fill="#FFBB45"/>
<path d="M375.583 260.425C377.985 260.425 379.931 258.43 379.931 255.97C379.931 253.509 377.985 251.514 375.583 251.514C373.182 251.514 371.235 253.509 371.235 255.97C371.235 258.43 373.182 260.425 375.583 260.425Z" fill="#FFBB45"/>
<path d="M375.46 223.426H375.706C376.478 223.426 377.217 223.74 377.762 224.298C378.308 224.857 378.614 225.615 378.614 226.405V232.942H372.559V226.405C372.559 225.616 372.864 224.859 373.408 224.301C373.952 223.742 374.69 223.428 375.46 223.426Z" fill="#FFBB45"/>
</svg>
