<svg width="263" height="309" viewBox="0 0 263 309" fill="none" xmlns="http://www.w3.org/2000/svg">
<path d="M143.856 5.18908L-78.7044 108.971C-90.1767 114.336 -99.0957 123.94 -103.505 135.675C-107.914 147.411 -107.454 160.319 -102.224 171.569L-50.9253 281.58C-45.6676 292.815 -36.0753 301.463 -24.2523 305.627C-12.4292 309.792 0.659394 309.132 12.143 303.793L234.703 200.012C246.175 194.648 255.095 185.046 259.505 173.311C263.915 161.577 263.455 148.669 258.226 137.42L206.927 27.409C201.67 16.1719 192.078 7.52191 180.254 3.35636C168.43 -0.809177 155.34 -0.150084 143.856 5.18908ZM34.7139 85.6857C32.6156 81.8084 45.2555 79.4947 58.149 99.2055C67.9209 114.156 69.4819 117.285 72.3945 121.866C79.8524 133.57 80.6733 136.491 81.3167 137.013C97.6416 150.845 95.767 182.451 75.4236 189.102C75.0919 189.216 74.8166 189.453 74.6571 189.762C74.4976 190.071 74.4667 190.428 74.571 190.755C74.6752 191.083 74.9063 191.354 75.2145 191.512C75.5227 191.67 75.8833 191.7 76.2184 191.598C98.6052 184.232 100.901 150.331 83.2484 135.168C82.8585 134.466 81.5039 132.032 79.2768 128.215C85.2899 128.812 91.3604 127.338 96.4621 124.043C94.6352 125.564 93.3672 127.638 92.8604 129.932C92.3535 132.227 92.6369 134.611 93.6653 136.704C94.6938 138.797 96.4081 140.479 98.5351 141.482C100.662 142.486 103.08 142.752 105.402 142.239C103.205 143.455 101.495 145.383 100.569 147.692C99.6429 150 99.5591 152.542 100.332 154.878C101.105 157.215 102.686 159.198 104.801 160.484C106.916 161.77 109.432 162.279 111.914 161.922C110.352 163.713 109.402 165.939 109.2 168.278C108.998 170.616 109.556 172.946 110.793 174.928C112.029 176.91 113.88 178.442 116.076 179.301C118.272 180.161 120.7 180.302 123.007 179.706C115.08 187.636 123.374 201.301 137.592 196.4L140.433 195.429C108.511 211.851 -37.9905 283.784 -44.6508 287.113C-45.9456 285.348 -47.0561 283.457 -47.9657 281.467C-51.2143 274.938 -58.8498 258.261 -83.1809 206.083C-72.5137 201.877 -0.692149 173.526 21.8331 162.723C30.6319 158.497 47.0174 150.641 47.6351 137.315C48.2267 125.076 37.618 91.0389 34.7204 85.6827L34.7139 85.6857ZM136.758 193.939C123.73 198.431 116.697 184.139 129.004 178.908C138.926 174.703 140.479 173.795 148.694 170.671C160.974 166.02 167.743 181.564 158.182 186.107C151.219 189.18 144.064 191.796 136.764 193.936L136.758 193.939ZM126.803 175.954C113.634 181.557 105.368 167.179 117.719 160.882C127.154 156.068 134.086 152.92 143.768 148.451C156.149 142.739 164.252 158.399 154.682 163.814C148.203 167.481 139.583 170.494 126.809 175.951L126.803 175.954ZM117.363 157.829C104.799 163.688 96.3047 150.315 107.916 143.795C117.511 138.399 140.083 126.99 140.727 126.689C152.137 121.368 160.329 135.673 151.453 141.18C145.253 145.024 130.349 151.666 117.369 157.826L117.363 157.829ZM110.717 137.725C98.7589 144.561 89.0477 131.91 100.169 124.473C107.474 119.599 123.407 109.665 125.224 108.817C135.732 103.917 144.336 116.901 136.138 122.936C130.294 127.175 123.138 130.619 110.724 137.722L110.717 137.725ZM255.797 138.553C260.734 149.172 261.169 161.358 257.006 172.436C252.843 183.514 244.421 192.579 233.59 197.642L11.0365 301.421C1.84932 305.689 -8.47645 306.81 -18.2825 304.602C-28.0886 302.395 -36.8062 296.988 -43.0353 289.249C-36.1853 285.839 -22.082 278.909 -4.35458 270.197C212.112 163.879 136.925 198.939 159.301 188.505C170.112 183.364 165.344 167.824 153.941 167.187C154.643 166.86 155.313 166.463 155.985 166.088C166.15 160.334 161.258 145.958 150.696 144.652C151.494 144.211 152.215 143.79 152.847 143.395C164.726 136.035 153.82 117.072 139.031 124.599L136.314 125.989C136.775 125.666 137.237 125.343 137.692 125.008C148.95 116.77 136.567 98.7263 122.448 107.338C87.08 126.412 81.5635 130.36 75.228 121.382C70.5085 113.549 65.689 105.854 60.3962 97.7504C44.4745 73.4128 28.4814 79.7718 32.3655 86.9575C35.1173 92.0513 45.5294 125.65 44.977 137.233C44.4432 149.006 28.9902 156.389 20.7008 160.362C-1.84373 171.174 -74.2083 199.74 -84.2874 203.71L-99.8019 170.439C-104.741 159.82 -105.178 147.634 -101.016 136.556C-96.8548 125.477 -88.4349 116.411 -77.6044 111.346L144.956 7.56495C155.798 2.52347 168.156 1.90069 179.318 5.83326C190.481 9.76584 199.536 17.9326 204.498 28.5417L255.797 138.553Z" fill="#6CACE4"/>
</svg>
